<?xml version="1.0" encoding="utf-8"?>
<!-- Generator: Adobe Illustrator 15.0.0, SVG Export Plug-In  -->
<!DOCTYPE svg PUBLIC "-//W3C//DTD SVG 1.1//EN" "http://www.w3.org/Graphics/SVG/1.1/DTD/svg11.dtd" [
	<!ENTITY ns_flows "http://ns.adobe.com/Flows/1.0/">
]>
<svg version="1.1"
	 xmlns="http://www.w3.org/2000/svg" xmlns:xlink="http://www.w3.org/1999/xlink" xmlns:a="http://ns.adobe.com/AdobeSVGViewerExtensions/3.0/"
	 x="0px" y="0px" width="40px" height="40px" viewBox="-4 -4 40 40" overflow="visible" enable-background="new -4 -4 40 40"
	 xml:space="preserve">
<defs>
</defs>
<path d="M29,6H3C1.343,6,0,4.657,0,3s1.343-3,3-3h26c1.657,0,3,1.343,3,3S30.657,6,29,6z"/>
<path d="M29,32H3c-1.657,0-3-1.343-3-3s1.343-3,3-3h26c1.657,0,3,1.343,3,3S30.657,32,29,32z"/>
<path d="M29,19H3c-1.657,0-3-1.343-3-3c0-1.657,1.343-3,3-3h26c1.657,0,3,1.343,3,3C32,17.657,30.657,19,29,19z"/>
</svg>
