<?xml version="1.0" encoding="utf-8"?>
<!-- Generator: Adobe Illustrator 15.0.0, SVG Export Plug-In . SVG Version: 6.00 Build 0)  -->
<!DOCTYPE svg PUBLIC "-//W3C//DTD SVG 1.1//EN" "http://www.w3.org/Graphics/SVG/1.1/DTD/svg11.dtd">
<svg version="1.1" id="Layer_1" xmlns="http://www.w3.org/2000/svg" xmlns:xlink="http://www.w3.org/1999/xlink" x="0px" y="0px"
	 width="40px" height="40px" viewBox="0 0 40 40" enable-background="new 0 0 40 40" xml:space="preserve">
<path d="M33,10H7c-1.657,0-3-1.343-3-3s1.343-3,3-3h26c1.657,0,3,1.343,3,3S34.657,10,33,10z"/>
<path d="M33,36H7c-1.657,0-3-1.343-3-3s1.343-3,3-3h26c1.657,0,3,1.343,3,3S34.657,36,33,36z"/>
<path d="M33,23H7c-1.657,0-3-1.343-3-3c0-1.657,1.343-3,3-3h26c1.657,0,3,1.343,3,3C36,21.657,34.657,23,33,23z"/>
<rect x="58" y="22" width="14" height="14"/>
<rect x="76" y="22" width="14" height="14"/>
<rect x="58" y="4" width="14" height="14"/>
<rect x="76" y="4" width="14" height="14"/>
</svg>
